<?xml version="1.0" encoding="UTF-8" standalone="no"?>
<svg
   xmlns:dc="http://purl.org/dc/elements/1.1/"
   xmlns:cc="http://creativecommons.org/ns#"
   xmlns:rdf="http://www.w3.org/1999/02/22-rdf-syntax-ns#"
   xmlns:svg="http://www.w3.org/2000/svg"
   xmlns="http://www.w3.org/2000/svg"
   xmlns:sodipodi="http://sodipodi.sourceforge.net/DTD/sodipodi-0.dtd"
   xmlns:inkscape="http://www.inkscape.org/namespaces/inkscape"
   width="500"
   height="700"
   viewBox="0 0 499.99998 699.99997"
   preserveAspectRatio="xMidYMid meet"
   zoomAndPan="disable"
   id="svg4136"
   version="1.1"
   inkscape:version="0.91 r13725"
   sodipodi:docname="A_hash(done).svg">
  <metadata
     id="metadata4179">
    <rdf:RDF>
      <cc:Work
         rdf:about="">
        <dc:format>image/svg+xml</dc:format>
        <dc:type
           rdf:resource="http://purl.org/dc/dcmitype/StillImage" />
        <dc:title />
      </cc:Work>
    </rdf:RDF>
  </metadata>
  <defs
     id="defs4177" />
  <sodipodi:namedview
     pagecolor="#ffffff"
     bordercolor="#666666"
     borderopacity="1"
     objecttolerance="10"
     gridtolerance="10"
     guidetolerance="10"
     inkscape:pageopacity="0"
     inkscape:pageshadow="2"
     inkscape:window-width="1680"
     inkscape:window-height="1028"
     id="namedview4175"
     showgrid="false"
     inkscape:zoom="0.72329356"
     inkscape:cx="81.771949"
     inkscape:cy="289.06633"
     inkscape:window-x="1912"
     inkscape:window-y="-8"
     inkscape:window-maximized="1"
     inkscape:current-layer="svg4136"
     units="px"
     showborder="false" />
  <rect
     id="svgEditorBackground"
     x="0"
     y="-130.00006"
     width="1380"
     height="830"
     style="fill:none;stroke:none" />
  <g
     id="e4_group"
     transform="translate(1,-215.00005)" />
  <g
     id="e5_group"
     transform="translate(1,-215.00005)" />
  <g
     id="e16_group"
     transform="translate(0,-130.00005)" />
  <g
     id="e17_group"
     transform="translate(1,-14.000051)" />
  <flowRoot
     xml:space="preserve"
     id="flowRoot4461"
     style="font-style:normal;font-weight:normal;font-size:40px;line-height:125%;font-family:sans-serif;letter-spacing:0px;word-spacing:0px;fill:#000000;fill-opacity:1;stroke:none;stroke-width:1px;stroke-linecap:butt;stroke-linejoin:miter;stroke-opacity:1"
     transform="translate(0,-130.00005)"><flowRegion
       id="flowRegion4463"><rect
         id="rect4465"
         width="317.72675"
         height="131.97881"
         x="543.55713"
         y="114.38162" /></flowRegion><flowPara
       id="flowPara4467" /></flowRoot>  <flowRoot
     xml:space="preserve"
     id="flowRoot4469"
     style="font-style:normal;font-weight:normal;font-size:40px;line-height:125%;font-family:sans-serif;letter-spacing:0px;word-spacing:0px;fill:#000000;fill-opacity:1;stroke:none;stroke-width:1px;stroke-linecap:butt;stroke-linejoin:miter;stroke-opacity:1"
     transform="translate(0,-130.00005)"><flowRegion
       id="flowRegion4471"><rect
         id="rect4473"
         width="336.30154"
         height="164.24028"
         x="525.95996"
         y="84.075386" /></flowRegion><flowPara
       id="flowPara4475" /></flowRoot>  <rect
     x="0.87604672"
     y="-0.34211969"
     id="e44_rectangle"
     style="fill:#574742;fill-opacity:1;stroke:#574742;stroke-width:0.90383708px;stroke-opacity:1"
     width="499.09177"
     height="699.10406" />
  <rect
     style="fill:#f6f1ed;fill-opacity:1;stroke:#f6f1ed;stroke-width:0.79996848;stroke-opacity:1"
     id="rect4260"
     width="345.24796"
     height="418.45624"
     x="43.966866"
     y="256.88885"
     ry="0" />
  <rect
     height="69.883896"
     width="61.553486"
     style="fill:#f0e68c;stroke:#000000;stroke-width:1.31173134px"
     id="e45_rectangle"
     y="293.47992"
     x="50.467079" />
  <rect
     height="69.883896"
     width="61.553486"
     style="fill:#574742;fill-opacity:1;stroke:#000000;stroke-width:1.31173134px"
     id="e46_rectangle"
     y="370.35217"
     x="50.467079" />
  <rect
     height="69.883896"
     width="61.553486"
     style="fill:#574742;fill-opacity:1;stroke:#000000;stroke-width:1.31173134px"
     id="e51_rectangle"
     y="447.22449"
     x="50.467079" />
  <rect
     height="69.883896"
     width="61.553486"
     style="fill:#574742;fill-opacity:1;stroke:#000000;stroke-width:1.31173134px"
     id="e52_rectangle"
     y="524.09674"
     x="50.467079" />
  <rect
     height="69.883896"
     width="61.553486"
     style="fill:#574742;fill-opacity:1;stroke:#000000;stroke-width:1.31173134px"
     id="e53_rectangle"
     y="600.96912"
     x="50.467079" />
  <rect
     height="69.883896"
     width="61.553486"
     style="fill:#574742;fill-opacity:1;stroke:#000000;stroke-width:1.31197345;stroke-miterlimit:4;stroke-dasharray:none"
     id="e49_rectangle"
     y="293.47992"
     x="50.467079" />
  <rect
     height="69.883896"
     width="61.553486"
     style="fill:#574742;fill-opacity:1;stroke:#000000;stroke-width:1.31197345;stroke-miterlimit:4;stroke-dasharray:none"
     id="e74_rectangle"
     y="600.96912"
     x="321.30228" />
  <rect
     x="118.1759"
     y="370.3522"
     id="e50_rectangle"
     style="fill:#574742;fill-opacity:1;stroke:#000000;stroke-width:1.31173134px"
     width="61.553486"
     height="69.883896" />
  <rect
     x="118.1759"
     y="524.09674"
     id="e59_rectangle"
     style="fill:#574742;fill-opacity:1;stroke:#000000;stroke-width:1.31197345;stroke-miterlimit:4;stroke-dasharray:none"
     width="61.553486"
     height="69.883896" />
  <rect
     x="118.1759"
     y="600.96906"
     id="e60_rectangle"
     style="fill:#574742;fill-opacity:1;stroke:#000000;stroke-width:1.31197345;stroke-miterlimit:4;stroke-dasharray:none"
     width="61.553486"
     height="69.883896" />
  <rect
     x="118.1759"
     y="447.22449"
     id="e61_rectangle"
     style="fill:#574742;fill-opacity:1;stroke:#000000;stroke-width:1.31197345;stroke-miterlimit:4;stroke-dasharray:none"
     width="61.553486"
     height="69.883896" />
  <rect
     x="185.88472"
     y="447.22449"
     id="e62_rectangle"
     style="fill:#574742;fill-opacity:1;stroke:#000000;stroke-width:1.31197345;stroke-miterlimit:4;stroke-dasharray:none"
     width="61.553486"
     height="69.883896" />
  <rect
     x="185.88472"
     y="370.3522"
     id="e63_rectangle"
     style="fill:#574742;fill-opacity:1;stroke:#000000;stroke-width:1.31173134px"
     width="61.553486"
     height="69.883896" />
  <rect
     x="185.88472"
     y="600.96906"
     id="e64_rectangle"
     style="fill:#574742;fill-opacity:1;stroke:#000000;stroke-width:1.31197345;stroke-miterlimit:4;stroke-dasharray:none"
     width="61.553486"
     height="69.883896" />
  <rect
     x="185.88472"
     y="524.09674"
     id="e65_rectangle"
     style="fill:#574742;fill-opacity:1;stroke:#000000;stroke-width:1.31197345;stroke-miterlimit:4;stroke-dasharray:none"
     width="61.553486"
     height="69.883896" />
  <rect
     x="253.5936"
     y="370.3522"
     id="e66_rectangle"
     style="fill:#574742;fill-opacity:1;stroke:#000000;stroke-width:1.31197345;stroke-miterlimit:4;stroke-dasharray:none"
     width="61.553486"
     height="69.883896" />
  <rect
     x="253.5936"
     y="447.22449"
     id="e67_rectangle"
     style="fill:#574742;fill-opacity:1;stroke:#000000;stroke-width:1.31197345;stroke-miterlimit:4;stroke-dasharray:none"
     width="61.553486"
     height="69.883896" />
  <rect
     x="253.5936"
     y="524.09674"
     id="e69_rectangle"
     style="fill:#574742;fill-opacity:1;stroke:#000000;stroke-width:1.31197345;stroke-miterlimit:4;stroke-dasharray:none"
     width="61.553486"
     height="69.883896" />
  <rect
     x="253.5936"
     y="600.96906"
     id="e70_rectangle"
     style="fill:#574742;fill-opacity:1;stroke:#000000;stroke-width:1.31197345;stroke-miterlimit:4;stroke-dasharray:none"
     width="61.553486"
     height="69.883896" />
  <rect
     x="321.30228"
     y="447.22449"
     id="e71_rectangle"
     style="fill:#574742;fill-opacity:1;stroke:#000000;stroke-width:1.31197345;stroke-miterlimit:4;stroke-dasharray:none"
     width="61.553486"
     height="69.883896" />
  <rect
     x="321.30228"
     y="524.09674"
     id="e72_rectangle"
     style="fill:#574742;fill-opacity:1;stroke:#000000;stroke-width:1.31197345;stroke-miterlimit:4;stroke-dasharray:none"
     width="61.553486"
     height="69.883896" />
  <rect
     x="321.30228"
     y="370.3522"
     id="e73_rectangle"
     style="fill:#574742;fill-opacity:1;stroke:#000000;stroke-width:1.31197345;stroke-miterlimit:4;stroke-dasharray:none"
     width="61.553486"
     height="69.883896" />
  <rect
     height="69.883896"
     width="61.553486"
     style="fill:#f0e68c;stroke:#000000;stroke-width:1.31173134px"
     id="e54_rectangle"
     y="293.47992"
     x="118.1759" />
  <rect
     height="69.883896"
     width="61.553486"
     style="fill:#574742;fill-opacity:1;stroke:#000000;stroke-width:1.31197345;stroke-miterlimit:4;stroke-dasharray:none"
     id="e55_rectangle"
     y="293.47992"
     x="185.88472" />
  <rect
     height="69.883896"
     width="61.553486"
     style="fill:#574742;fill-opacity:1;stroke:#000000;stroke-width:1.31197345;stroke-miterlimit:4;stroke-dasharray:none"
     id="e56_rectangle"
     y="293.47992"
     x="253.5936" />
  <rect
     height="69.883896"
     width="61.553486"
     style="fill:#574742;fill-opacity:1;stroke:#000000;stroke-width:1.31197345;stroke-miterlimit:4;stroke-dasharray:none"
     id="e57_rectangle"
     y="293.47992"
     x="321.30228" />
  <rect
     height="69.883896"
     width="61.553486"
     style="fill:#574742;fill-opacity:1;stroke:#000000;stroke-width:1.31197345;stroke-miterlimit:4;stroke-dasharray:none"
     id="e58_rectangle"
     y="293.47992"
     x="118.1759" />
  <ellipse
     style="fill:#f6f1ed;fill-opacity:1;stroke:#f6f1ed;stroke-width:0.9279173;stroke-opacity:1"
     id="path4262-4"
     cx="43.355831"
     cy="483.60138"
     rx="32.337116"
     ry="28.985567" />
  <ellipse
     style="fill:#f6f1ed;fill-opacity:1;stroke:#f6f1ed;stroke-width:0.9279173;stroke-opacity:1"
     id="path4262-4-2"
     cx="112.66947"
     cy="481.85553"
     rx="32.337116"
     ry="28.985567" />
  <ellipse
     style="fill:none;fill-opacity:1;stroke:#f6f1ed;stroke-width:4.7670002;stroke-miterlimit:4;stroke-dasharray:none;stroke-opacity:1"
     id="path4262-4-2-4"
     cx="122.51604"
     cy="215.25066"
     rx="32.337116"
     ry="28.985567" />
  <g
     transform="matrix(1.0079714,0,0,0.96104043,-436.26364,-137.97122)"
     style="font-style:normal;font-variant:normal;font-weight:normal;font-stretch:normal;font-size:180px;line-height:159.00000334%;font-family:'Malgun Gothic';-inkscape-font-specification:'Malgun Gothic';letter-spacing:0px;word-spacing:2.70000005px;fill:#f6f1ed;fill-opacity:1;stroke:none;stroke-width:1px;stroke-linecap:butt;stroke-linejoin:miter;stroke-opacity:1"
     id="flowRoot4477">
    <path
       d="m 615.34955,295.78214 -15.73242,0 -14.0625,-36.73828 -55.45899,0 -13.0957,36.73828 -15.82031,0 49.74609,-129.375 14.41406,0 50.00977,129.375 z m -34.62891,-49.74609 -20.65429,-55.89844 q -1.14258,-3.07617 -1.9336,-8.52539 l -0.43945,0 q -0.9668,6.06445 -2.10938,8.52539 l -20.47851,55.89844 45.61523,0 z"
       style="font-style:normal;font-variant:normal;font-weight:normal;font-stretch:normal;font-size:180px;font-family:'Malgun Gothic';-inkscape-font-specification:'Malgun Gothic';letter-spacing:0px;fill:#f6f1ed;fill-opacity:1"
       id="path4236" />
    <path
       d="m 722.57611,202.96964 -2.02148,9.05273 -23.81836,0 -5.80078,27.42188 25.83984,0 -2.37305,9.05273 -25.22461,0 -7.99804,36.12305 -10.98633,0 7.91015,-36.12305 -22.67578,0 -7.64648,36.12305 -10.89844,0 7.73438,-36.12305 -24.08203,0 1.58203,-9.05273 24.43359,0 5.44922,-27.42188 -25.3125,0 1.75781,-9.05273 25.40039,0 7.73438,-36.65039 10.81054,0 -7.55859,36.65039 22.76367,0 7.82227,-36.65039 10.63476,0 -7.55859,36.65039 24.08203,0 z m -36.5625,9.05273 -22.93945,0 -6.06446,27.42188 23.20313,0 5.80078,-27.42188 z"
       style="font-style:normal;font-variant:normal;font-weight:normal;font-stretch:normal;font-size:180px;font-family:'Malgun Gothic';-inkscape-font-specification:'Malgun Gothic';letter-spacing:0px;fill:#f6f1ed;fill-opacity:1"
       id="path4238" />
  </g>
  <flowRoot
     xml:space="preserve"
     id="flowRoot4185"
     style="font-style:normal;font-weight:normal;font-size:40px;line-height:125%;font-family:sans-serif;letter-spacing:0px;word-spacing:0px;fill:#000000;fill-opacity:1;stroke:none;stroke-width:1px;stroke-linecap:butt;stroke-linejoin:miter;stroke-opacity:1"
     transform="translate(0,-8.6614587)"><flowRegion
       id="flowRegion4187"><rect
         id="rect4189"
         width="750.73254"
         height="868.25049"
         x="-42.859501"
         y="-48.983929" /></flowRegion><flowPara
       id="flowPara4191" /></flowRoot>  <ellipse
     style="fill:#f6f1ed;fill-opacity:1;stroke:#f6f1ed;stroke-width:0.9279173;stroke-opacity:1"
     id="path4262-4-2-8"
     cx="317.98981"
     cy="328.09015"
     rx="32.337116"
     ry="28.985567" />
  <g
     id="g4207"
     transform="translate(334.58061,-1.3825645)">
    <path
       inkscape:connector-curvature="0"
       id="path4245"
       d="m 22.149264,189.85732 c 55.19815,53.91907 55.19815,55.23418 55.19815,55.23418"
       style="fill:#f6f1ed;fill-opacity:1;fill-rule:evenodd;stroke:#f6f1ed;stroke-width:4.8294816;stroke-linecap:butt;stroke-linejoin:miter;stroke-miterlimit:4;stroke-dasharray:none;stroke-opacity:1" />
    <g
       id="g4189">
      <path
         style="fill:#f6f1ed;fill-opacity:1;fill-rule:evenodd;stroke:#f6f1ed;stroke-width:5.24888182;stroke-linecap:butt;stroke-linejoin:miter;stroke-miterlimit:4;stroke-dasharray:none;stroke-opacity:1"
         d="M 78.612523,188.61169 C 22.314656,249.1234 22.314656,249.1234 22.314656,249.1234"
         id="path4247"
         inkscape:connector-curvature="0" />
    </g>
  </g>
  <ellipse
     style="fill:#f6f1ed;fill-opacity:1;stroke:#f6f1ed;stroke-width:0.9279173;stroke-opacity:1"
     id="path4262-4-2-8-0"
     cx="182.49849"
     cy="404.1312"
     rx="32.337116"
     ry="28.985567" />
  <g
     transform="matrix(1.6305766,0,0,2.1967798,-267.01755,-428.21359)"
     style="font-style:normal;font-weight:normal;font-size:40px;line-height:125%;font-family:sans-serif;letter-spacing:0px;word-spacing:0px;fill:#f6f1ed;fill-opacity:1;stroke:none;stroke-width:1px;stroke-linecap:butt;stroke-linejoin:miter;stroke-opacity:1"
     id="flowRoot4227">
    <path
       d="m 435.26562,362.78387 q 0,4.43359 -2.92968,7.24609 -2.91016,2.79297 -7.14844,2.79297 -2.14844,0 -3.90625,-0.66406 -1.75781,-0.66406 -3.10547,-1.97266 -1.67969,-1.62109 -2.59766,-4.29687 -0.89843,-2.67578 -0.89843,-6.44532 0,-3.86718 0.82031,-6.85546 0.83984,-2.98829 2.65625,-5.3125 1.71875,-2.20704 4.43359,-3.4375 2.71485,-1.25 6.32813,-1.25 1.15234,0 1.93359,0.0977 0.78125,0.0977 1.58203,0.35156 l 0,3.73047 -0.19531,0 q -0.54687,-0.29297 -1.66016,-0.54687 -1.09375,-0.27344 -2.24609,-0.27344 -4.19922,0 -6.69922,2.63672 -2.5,2.61719 -2.91015,7.08984 1.64062,-0.99609 3.22265,-1.5039 1.60156,-0.52735 3.69141,-0.52735 1.85547,0 3.26172,0.35157 1.42578,0.33203 2.91015,1.36718 1.71875,1.19141 2.57813,3.00782 0.8789,1.8164 0.8789,4.41406 z m -3.96484,0.15625 q 0,-1.81641 -0.54687,-3.00781 -0.52735,-1.19141 -1.75782,-2.07032 -0.89843,-0.625 -1.99218,-0.82031 -1.09375,-0.19531 -2.28516,-0.19531 -1.66016,0 -3.08594,0.39062 -1.42578,0.39063 -2.92969,1.21094 -0.0391,0.42969 -0.0586,0.83984 -0.0195,0.39063 -0.0195,0.9961 0,3.08594 0.625,4.88281 0.64453,1.77734 1.75781,2.8125 0.89844,0.85938 1.9336,1.26953 1.05468,0.39063 2.28515,0.39063 2.83203,0 4.45313,-1.71875 1.62109,-1.73828 1.62109,-4.98047 z"
       id="path4241"
       inkscape:connector-curvature="0" />
    <path
       d="m 452.82422,345.38152 -0.19531,0 q -0.60547,-0.17578 -1.58204,-0.35156 -0.97656,-0.19531 -1.71875,-0.19531 -2.36328,0 -3.4375,1.05469 -1.05468,1.03515 -1.05468,3.76953 l 0,0.74219 6.62109,0 0,3.08593 -6.50391,0 0,18.73047 -3.67187,0 0,-18.73047 -2.48047,0 0,-3.08593 2.48047,0 0,-0.72266 q 0,-3.88672 1.93359,-5.95703 1.9336,-2.08985 5.58594,-2.08985 1.23047,0 2.20703,0.11719 0.9961,0.11719 1.81641,0.27344 l 0,3.35937 z"
       id="path4243"
       inkscape:connector-curvature="0" />
    <path
       d="m 468.76172,354.40496 -0.19531,0 q -0.82032,-0.19531 -1.60157,-0.27344 -0.76172,-0.0977 -1.8164,-0.0977 -1.69922,0 -3.28125,0.76172 -1.58203,0.74218 -3.04688,1.93359 l 0,15.48828 -3.67187,0 0,-21.8164 3.67187,0 0,3.22265 q 2.1875,-1.75781 3.84766,-2.48047 1.67969,-0.74218 3.41797,-0.74218 0.95703,0 1.38672,0.0586 0.42968,0.0391 1.28906,0.17578 l 0,3.76953 z"
       id="path4246"
       inkscape:connector-curvature="0" />
  </g>
</svg>
