<?xml version="1.0" encoding="UTF-8" standalone="no"?>
<svg
   xmlns:dc="http://purl.org/dc/elements/1.1/"
   xmlns:cc="http://creativecommons.org/ns#"
   xmlns:rdf="http://www.w3.org/1999/02/22-rdf-syntax-ns#"
   xmlns:svg="http://www.w3.org/2000/svg"
   xmlns="http://www.w3.org/2000/svg"
   xmlns:sodipodi="http://sodipodi.sourceforge.net/DTD/sodipodi-0.dtd"
   xmlns:inkscape="http://www.inkscape.org/namespaces/inkscape"
   width="500"
   height="700"
   viewBox="0 0 499.99998 699.99997"
   preserveAspectRatio="xMidYMid meet"
   zoomAndPan="disable"
   id="svg4136"
   version="1.1"
   inkscape:version="0.91 r13725"
   sodipodi:docname="C_G_2(done).svg">
  <metadata
     id="metadata4179">
    <rdf:RDF>
      <cc:Work
         rdf:about="">
        <dc:format>image/svg+xml</dc:format>
        <dc:type
           rdf:resource="http://purl.org/dc/dcmitype/StillImage" />
        <dc:title></dc:title>
      </cc:Work>
    </rdf:RDF>
  </metadata>
  <defs
     id="defs4177" />
  <sodipodi:namedview
     pagecolor="#ffffff"
     bordercolor="#666666"
     borderopacity="1"
     objecttolerance="10"
     gridtolerance="10"
     guidetolerance="10"
     inkscape:pageopacity="0"
     inkscape:pageshadow="2"
     inkscape:window-width="1680"
     inkscape:window-height="1028"
     id="namedview4175"
     showgrid="false"
     inkscape:zoom="0.70710678"
     inkscape:cx="229.00743"
     inkscape:cy="313.98828"
     inkscape:window-x="1912"
     inkscape:window-y="-8"
     inkscape:window-maximized="1"
     inkscape:current-layer="svg4136"
     units="px"
     showborder="false" />
  <rect
     id="svgEditorBackground"
     x="0"
     y="-130.00006"
     width="1380"
     height="830"
     style="fill:none;stroke:none" />
  <g
     id="e4_group"
     transform="translate(1,-215.00005)" />
  <g
     id="e5_group"
     transform="translate(1,-215.00005)" />
  <g
     id="e16_group"
     transform="translate(0,-130.00005)" />
  <g
     id="e17_group"
     transform="translate(1,-14.000051)" />
  <flowRoot
     xml:space="preserve"
     id="flowRoot4461"
     style="font-style:normal;font-weight:normal;font-size:40px;line-height:125%;font-family:sans-serif;letter-spacing:0px;word-spacing:0px;fill:#000000;fill-opacity:1;stroke:none;stroke-width:1px;stroke-linecap:butt;stroke-linejoin:miter;stroke-opacity:1"
     transform="translate(0,-130.00005)"><flowRegion
       id="flowRegion4463"><rect
         id="rect4465"
         width="317.72675"
         height="131.97881"
         x="543.55713"
         y="114.38162" /></flowRegion><flowPara
       id="flowPara4467" /></flowRoot>  <flowRoot
     xml:space="preserve"
     id="flowRoot4469"
     style="font-style:normal;font-weight:normal;font-size:40px;line-height:125%;font-family:sans-serif;letter-spacing:0px;word-spacing:0px;fill:#000000;fill-opacity:1;stroke:none;stroke-width:1px;stroke-linecap:butt;stroke-linejoin:miter;stroke-opacity:1"
     transform="translate(0,-130.00005)"><flowRegion
       id="flowRegion4471"><rect
         id="rect4473"
         width="336.30154"
         height="164.24028"
         x="525.95996"
         y="84.075386" /></flowRegion><flowPara
       id="flowPara4475" /></flowRoot>  <rect
     x="0.87604672"
     y="-0.34211969"
     id="e44_rectangle"
     style="fill:#574742;fill-opacity:1;stroke:#574742;stroke-width:0.90383708px;stroke-opacity:1"
     width="499.09177"
     height="699.10406" />
  <rect
     style="fill:#f6f1ed;fill-opacity:1;stroke:#f6f1ed;stroke-width:0.79996848;stroke-opacity:1"
     id="rect4260"
     width="345.24796"
     height="418.45624"
     x="43.966866"
     y="256.88885"
     ry="0" />
  <rect
     height="69.883896"
     width="61.553486"
     style="fill:#f0e68c;stroke:#000000;stroke-width:1.31173134px"
     id="e45_rectangle"
     y="293.47992"
     x="50.467079" />
  <rect
     height="69.883896"
     width="61.553486"
     style="fill:#574742;fill-opacity:1;stroke:#000000;stroke-width:1.31173134px"
     id="e46_rectangle"
     y="370.35217"
     x="50.467079" />
  <rect
     height="69.883896"
     width="61.553486"
     style="fill:#574742;fill-opacity:1;stroke:#000000;stroke-width:1.31173134px"
     id="e51_rectangle"
     y="447.22449"
     x="50.467079" />
  <rect
     height="69.883896"
     width="61.553486"
     style="fill:#574742;fill-opacity:1;stroke:#000000;stroke-width:1.31173134px"
     id="e52_rectangle"
     y="524.09674"
     x="50.467079" />
  <rect
     height="69.883896"
     width="61.553486"
     style="fill:#574742;fill-opacity:1;stroke:#000000;stroke-width:1.31173134px"
     id="e53_rectangle"
     y="600.96912"
     x="50.467079" />
  <rect
     height="69.883896"
     width="61.553486"
     style="fill:#574742;fill-opacity:1;stroke:#000000;stroke-width:1.31197345;stroke-miterlimit:4;stroke-dasharray:none"
     id="e49_rectangle"
     y="293.47992"
     x="50.467079" />
  <rect
     height="69.883896"
     width="61.553486"
     style="fill:#574742;fill-opacity:1;stroke:#000000;stroke-width:1.31197345;stroke-miterlimit:4;stroke-dasharray:none"
     id="e74_rectangle"
     y="600.96912"
     x="321.30228" />
  <rect
     x="118.1759"
     y="370.3522"
     id="e50_rectangle"
     style="fill:#574742;fill-opacity:1;stroke:#000000;stroke-width:1.31173134px"
     width="61.553486"
     height="69.883896" />
  <rect
     x="118.1759"
     y="524.09674"
     id="e59_rectangle"
     style="fill:#574742;fill-opacity:1;stroke:#000000;stroke-width:1.31197345;stroke-miterlimit:4;stroke-dasharray:none"
     width="61.553486"
     height="69.883896" />
  <rect
     x="118.1759"
     y="600.96906"
     id="e60_rectangle"
     style="fill:#574742;fill-opacity:1;stroke:#000000;stroke-width:1.31197345;stroke-miterlimit:4;stroke-dasharray:none"
     width="61.553486"
     height="69.883896" />
  <rect
     x="118.1759"
     y="447.22449"
     id="e61_rectangle"
     style="fill:#574742;fill-opacity:1;stroke:#000000;stroke-width:1.31197345;stroke-miterlimit:4;stroke-dasharray:none"
     width="61.553486"
     height="69.883896" />
  <rect
     x="185.88472"
     y="447.22449"
     id="e62_rectangle"
     style="fill:#574742;fill-opacity:1;stroke:#000000;stroke-width:1.31197345;stroke-miterlimit:4;stroke-dasharray:none"
     width="61.553486"
     height="69.883896" />
  <rect
     x="185.88472"
     y="370.3522"
     id="e63_rectangle"
     style="fill:#574742;fill-opacity:1;stroke:#000000;stroke-width:1.31173134px"
     width="61.553486"
     height="69.883896" />
  <rect
     x="185.88472"
     y="600.96906"
     id="e64_rectangle"
     style="fill:#574742;fill-opacity:1;stroke:#000000;stroke-width:1.31197345;stroke-miterlimit:4;stroke-dasharray:none"
     width="61.553486"
     height="69.883896" />
  <rect
     x="185.88472"
     y="524.09674"
     id="e65_rectangle"
     style="fill:#574742;fill-opacity:1;stroke:#000000;stroke-width:1.31197345;stroke-miterlimit:4;stroke-dasharray:none"
     width="61.553486"
     height="69.883896" />
  <rect
     x="253.5936"
     y="370.3522"
     id="e66_rectangle"
     style="fill:#574742;fill-opacity:1;stroke:#000000;stroke-width:1.31197345;stroke-miterlimit:4;stroke-dasharray:none"
     width="61.553486"
     height="69.883896" />
  <rect
     x="253.5936"
     y="447.22449"
     id="e67_rectangle"
     style="fill:#574742;fill-opacity:1;stroke:#000000;stroke-width:1.31197345;stroke-miterlimit:4;stroke-dasharray:none"
     width="61.553486"
     height="69.883896" />
  <rect
     x="253.5936"
     y="524.09674"
     id="e69_rectangle"
     style="fill:#574742;fill-opacity:1;stroke:#000000;stroke-width:1.31197345;stroke-miterlimit:4;stroke-dasharray:none"
     width="61.553486"
     height="69.883896" />
  <rect
     x="253.5936"
     y="600.96906"
     id="e70_rectangle"
     style="fill:#574742;fill-opacity:1;stroke:#000000;stroke-width:1.31197345;stroke-miterlimit:4;stroke-dasharray:none"
     width="61.553486"
     height="69.883896" />
  <rect
     x="321.30228"
     y="447.22449"
     id="e71_rectangle"
     style="fill:#574742;fill-opacity:1;stroke:#000000;stroke-width:1.31197345;stroke-miterlimit:4;stroke-dasharray:none"
     width="61.553486"
     height="69.883896" />
  <rect
     x="321.30228"
     y="524.09674"
     id="e72_rectangle"
     style="fill:#574742;fill-opacity:1;stroke:#000000;stroke-width:1.31197345;stroke-miterlimit:4;stroke-dasharray:none"
     width="61.553486"
     height="69.883896" />
  <rect
     x="321.30228"
     y="370.3522"
     id="e73_rectangle"
     style="fill:#574742;fill-opacity:1;stroke:#000000;stroke-width:1.31197345;stroke-miterlimit:4;stroke-dasharray:none"
     width="61.553486"
     height="69.883896" />
  <rect
     height="69.883896"
     width="61.553486"
     style="fill:#f0e68c;stroke:#000000;stroke-width:1.31173134px"
     id="e54_rectangle"
     y="293.47992"
     x="118.1759" />
  <rect
     height="69.883896"
     width="61.553486"
     style="fill:#574742;fill-opacity:1;stroke:#000000;stroke-width:1.31197345;stroke-miterlimit:4;stroke-dasharray:none"
     id="e55_rectangle"
     y="293.47992"
     x="185.88472" />
  <rect
     height="69.883896"
     width="61.553486"
     style="fill:#574742;fill-opacity:1;stroke:#000000;stroke-width:1.31197345;stroke-miterlimit:4;stroke-dasharray:none"
     id="e56_rectangle"
     y="293.47992"
     x="253.5936" />
  <rect
     height="69.883896"
     width="61.553486"
     style="fill:#574742;fill-opacity:1;stroke:#000000;stroke-width:1.31197345;stroke-miterlimit:4;stroke-dasharray:none"
     id="e57_rectangle"
     y="293.47992"
     x="321.30228" />
  <rect
     height="69.883896"
     width="61.553486"
     style="fill:#574742;fill-opacity:1;stroke:#000000;stroke-width:1.31197345;stroke-miterlimit:4;stroke-dasharray:none"
     id="e58_rectangle"
     y="293.47992"
     x="118.1759" />
  <ellipse
     style="fill:#f6f1ed;fill-opacity:1;stroke:#f6f1ed;stroke-width:0.9279173;stroke-opacity:1"
     id="path4262-4"
     cx="115.28084"
     cy="481.13107"
     rx="32.337116"
     ry="28.985567" />
  <ellipse
     style="fill:#f6f1ed;fill-opacity:1;stroke:#f6f1ed;stroke-width:0.9279173;stroke-opacity:1"
     id="path4262-4-2"
     cx="251.03085"
     cy="404.40027"
     rx="32.337116"
     ry="28.985567" />
  <ellipse
     style="fill:none;fill-opacity:1;stroke:#f6f1ed;stroke-width:4.76660728;stroke-miterlimit:4;stroke-dasharray:none;stroke-opacity:1"
     id="path4262-4-2-7"
     cx="184.79083"
     cy="209.68875"
     rx="32.337116"
     ry="28.985567" />
  <ellipse
     style="fill:none;fill-opacity:1;stroke:#f6f1ed;stroke-width:4.76660728;stroke-miterlimit:4;stroke-dasharray:none;stroke-opacity:1"
     id="path4262-4-2-47"
     cx="322.04916"
     cy="211.10297"
     rx="32.337116"
     ry="28.985567" />
  <ellipse
     style="fill:none;fill-opacity:1;stroke:#f6f1ed;stroke-width:4.76660728;stroke-miterlimit:4;stroke-dasharray:none;stroke-opacity:1"
     id="path4262-4-2-1"
     cx="389.23001"
     cy="211.10297"
     rx="32.337116"
     ry="28.985567" />
  <g
     transform="matrix(1.0079714,0,0,0.96104043,-436.26364,-137.97122)"
     style="font-style:normal;font-variant:normal;font-weight:normal;font-stretch:normal;font-size:180px;line-height:159.00000334%;font-family:'Malgun Gothic';-inkscape-font-specification:'Malgun Gothic';letter-spacing:0px;word-spacing:2.70000005px;fill:#f6f1ed;fill-opacity:1;stroke:none;stroke-width:1px;stroke-linecap:butt;stroke-linejoin:miter;stroke-opacity:1"
     id="flowRoot4477">
    <path
       d="m 603.83588,290.24503 q -14.32618,7.73438 -35.59571,7.73438 -27.33398,0 -43.94531,-17.92969 -16.61133,-18.01758 -16.61133,-46.49414 0,-30.0586 18.36914,-49.65821 18.36914,-19.59961 47.37305,-19.59961 18.36914,0 30.41016,5.36133 l 0,15.29297 q -13.79883,-7.64648 -30.67383,-7.64648 -23.11524,0 -36.82617,15.55664 -13.71094,15.55664 -13.71094,39.90234 0,23.29102 12.91992,37.79297 12.91992,14.50195 34.45313,14.50195 19.51171,0 33.83789,-8.61328 l 0,13.79883 z"
       style="font-style:normal;font-variant:normal;font-weight:normal;font-stretch:normal;font-size:180px;font-family:'Malgun Gothic';-inkscape-font-specification:'Malgun Gothic';letter-spacing:0px;fill:#f6f1ed;fill-opacity:1"
       id="path4252" />
    <path
       d="m 686.01361,166.40714 -62.05078,150.82031 -13.00781,0 61.78711,-150.82031 13.27148,0 z"
       style="font-style:normal;font-variant:normal;font-weight:normal;font-stretch:normal;font-size:180px;font-family:'Malgun Gothic';-inkscape-font-specification:'Malgun Gothic';letter-spacing:0px;fill:#f6f1ed;fill-opacity:1"
       id="path4254" />
    <path
       d="m 797.81049,286.90519 q -19.33594,11.07422 -43.06641,11.07422 -27.1582,0 -44.29688,-17.8418 -17.13867,-17.92969 -17.13867,-47.28516 0,-29.9707 18.89649,-49.21875 18.98437,-19.33594 47.90039,-19.33594 21.70898,0 35.33203,6.94336 l 0,16.08399 q -15.64453,-9.93164 -37.08984,-9.93164 -21.97266,0 -36.03516,15.11719 -14.0625,15.11718 -14.0625,39.19921 0,24.96094 13.00781,39.11133 13.00781,14.15039 35.50781,14.15039 15.90821,0 26.80664,-6.24023 l 0,-37.00195 -28.47656,0 0,-13.00782 42.71485,0 0,58.1836 z"
       style="font-style:normal;font-variant:normal;font-weight:normal;font-stretch:normal;font-size:180px;font-family:'Malgun Gothic';-inkscape-font-specification:'Malgun Gothic';letter-spacing:0px;fill:#f6f1ed;fill-opacity:1"
       id="path4256" />
  </g>
  <flowRoot
     xml:space="preserve"
     id="flowRoot4185"
     style="font-style:normal;font-weight:normal;font-size:40px;line-height:125%;font-family:sans-serif;letter-spacing:0px;word-spacing:0px;fill:#000000;fill-opacity:1;stroke:none;stroke-width:1px;stroke-linecap:butt;stroke-linejoin:miter;stroke-opacity:1"
     transform="translate(0,-8.6614587)"><flowRegion
       id="flowRegion4187"><rect
         id="rect4189"
         width="750.73254"
         height="868.25049"
         x="-42.859501"
         y="-48.983929" /></flowRegion><flowPara
       id="flowPara4191" /></flowRoot>  <g
     transform="matrix(2.5238095,0,0,2.1452632,-591.93454,-91.728261)"
     style="font-style:normal;font-weight:normal;font-size:40px;line-height:125%;font-family:sans-serif;letter-spacing:0px;word-spacing:0px;fill:#f6f1ed;fill-opacity:1;stroke:none;stroke-width:1px;stroke-linecap:butt;stroke-linejoin:miter;stroke-opacity:1"
     id="flowRoot4228">
    <path
       d="m 406.83203,71.361993 -19.6875,0 0,-4.082031 q 2.05078,-1.757813 4.10156,-3.515625 2.07032,-1.757813 3.84766,-3.496094 3.75,-3.632813 5.13672,-5.761719 1.38672,-2.148437 1.38672,-4.628906 0,-2.265625 -1.50391,-3.535156 -1.48437,-1.289063 -4.16016,-1.289063 -1.77734,0 -3.84765,0.625 -2.07031,0.625 -4.04297,1.914063 l -0.19531,0 0,-4.101563 q 1.38672,-0.683594 3.6914,-1.25 2.32422,-0.566406 4.49219,-0.566406 4.47266,0 7.01172,2.167969 2.53906,2.148437 2.53906,5.839843 0,1.660157 -0.42969,3.105469 -0.41015,1.425781 -1.23046,2.714844 -0.76172,1.210937 -1.79688,2.382812 -1.01562,1.171875 -2.48047,2.597657 -2.08984,2.050781 -4.3164,3.984375 -2.22657,1.914062 -4.16016,3.554687 l 15.64453,0 0,3.339844 z"
       style=""
       id="path4259" />
  </g>
  <ellipse
     style="fill:#f6f1ed;fill-opacity:1;stroke:#f6f1ed;stroke-width:0.9279173;stroke-opacity:1"
     id="path4262-4-3"
     cx="46.669033"
     cy="480.79691"
     rx="32.337116"
     ry="28.985567" />
</svg>
